<svg width="32" height="29" viewBox="0 0 32 29" fill="none" xmlns="http://www.w3.org/2000/svg">
<g clip-path="url(#clip0_325_980)">
<path d="M16.7857 18.0088C16.7722 18.0155 16.7571 18.0205 16.7436 18.0255C16.2473 18.2134 15.7207 18.2 15.2599 18.0239L15.2177 18.0088C14.7114 17.8041 14.2844 17.4048 14.0632 16.863C13.6295 15.7977 14.1459 14.5865 15.2177 14.1554C16.2878 13.7242 17.5065 14.2393 17.9402 15.3012C18.374 16.3664 17.8575 17.5776 16.7857 18.0088Z" fill="white"/>
<path d="M16.0008 0C0.791603 0 0 10.2987 0 23.0013C0 23.7696 0.0253178 24.5296 0.0793291 25.2794C0.87262 25.3885 1.487 25.5512 2.06593 25.719C2.06424 25.7055 2.06424 25.6921 2.06424 25.6787C2.06424 23.6589 4.45931 22.0753 7.51938 22.0753C10.5795 22.0753 12.7585 23.5213 12.9593 25.4103C13.7391 25.2509 14.6826 25.1368 15.9992 25.1368C17.3157 25.1368 18.2626 25.2509 19.0424 25.4103C19.2432 23.5213 21.5606 22.0753 24.4823 22.0753C27.404 22.0753 29.9374 23.6589 29.9374 25.6787C29.9374 25.6921 29.9374 25.7055 29.9358 25.719C30.5147 25.5512 31.1291 25.3885 31.9224 25.2794C31.9747 24.5296 32 23.7696 32 23.0013C32 10.2987 31.2101 0 16.0008 0ZM8.47808 11.8068C8.47808 10.9395 9.18698 10.2366 10.0596 10.2366C10.9322 10.2366 11.6394 10.9395 11.6394 11.8068C11.6394 12.6741 10.9322 13.3787 10.0596 13.3787C9.18698 13.3787 8.47808 12.6741 8.47808 11.8068ZM20.7268 20.2249C19.8593 20.7181 18.779 20.8238 17.7798 20.4228L16.0025 19.7065L14.2218 20.4228C13.2243 20.8238 12.1441 20.7181 11.2765 20.2249C10.6402 19.8642 10.117 19.2972 9.81993 18.5691L11.0149 18.0877C11.4487 19.1529 12.669 19.6646 13.7391 19.2334L14.3248 18.9986C13.6868 18.6379 13.1636 18.0692 12.8682 17.3428C12.1677 15.6233 13.0032 13.6639 14.7333 12.9677C16.4633 12.2715 18.4347 13.1002 19.1352 14.8214C19.7783 16.4 19.1267 18.1782 17.6786 18.9986L18.2643 19.2334C19.3344 19.6646 20.5547 19.1529 20.9868 18.0877L22.1834 18.5691C21.8864 19.2972 21.3632 19.8642 20.7268 20.2249ZM21.9438 13.3787C21.0712 13.3787 20.3639 12.6741 20.3639 11.8068C20.3639 10.9395 21.0712 10.2366 21.9438 10.2366C22.8164 10.2366 23.5236 10.9395 23.5236 11.8068C23.5236 12.6741 22.8164 13.3787 21.9438 13.3787Z" fill="white"/>
<path d="M11.7744 25.6939V25.7073C11.7677 26.385 11.3001 26.999 10.5423 27.4469C10.1996 28.1935 9.67979 28.8628 9.22069 28.8628C8.94051 28.8628 8.64007 28.6145 8.37002 28.2539C8.09827 28.6145 7.79783 28.8628 7.51934 28.8628C7.24084 28.8628 6.93872 28.6145 6.66866 28.2539C6.39692 28.6145 6.09648 28.8628 5.81629 28.8628C5.3572 28.8628 4.83903 28.1935 4.49639 27.4469C3.87526 27.0812 3.44993 26.6031 3.31152 26.0713C3.27945 25.9489 3.26257 25.8214 3.26257 25.6939C3.26257 24.3199 5.16816 23.2043 7.51934 23.2043C9.87052 23.2043 11.7744 24.3199 11.7744 25.6939Z" fill="white"/>
<path d="M28.739 25.6939C28.739 25.8214 28.7221 25.9489 28.6901 26.0713C28.5517 26.6031 28.1263 27.0812 27.5052 27.4469C27.1626 28.1935 26.6444 28.8628 26.1853 28.8628C25.9051 28.8628 25.6047 28.6145 25.3346 28.2539C25.0629 28.6145 24.7624 28.8628 24.4823 28.8628C24.2021 28.8628 23.9033 28.6145 23.6333 28.2539C23.3615 28.6145 23.0611 28.8628 22.7809 28.8628C22.3218 28.8628 21.8036 28.1935 21.461 27.4469C20.7015 26.999 20.2339 26.385 20.2272 25.709V25.6939C20.2272 24.3199 22.1328 23.2043 24.4823 23.2043C26.8317 23.2043 28.739 24.3199 28.739 25.6939Z" fill="white"/>
</g>
<defs>
<clipPath id="clip0_325_980">
<rect width="32" height="28.8627" fill="white"/>
</clipPath>
</defs>
</svg>
