<svg width="61" height="23" viewBox="0 0 61 23" fill="none" xmlns="http://www.w3.org/2000/svg">
<g clip-path="url(#clip0_134_1026)">
<path d="M10.3882 0.855778C9.68701 3.25354 9.18128 5.82087 8.84239 8.47564C11.3137 8.58956 14.2333 8.64785 18.5868 8.27693L17.3511 15.2397C14.0091 14.9536 11.285 14.8979 8.33927 15.0119C8.1985 18.1806 8.28192 21.0341 8.36795 23.0027L3.31329 22.9444C2.35919 12.9002 1.17829 5.47909 0 0.855778H10.3882Z" fill="white"/>
<path d="M34.5902 8.163L34.3321 16.326C30.3176 16.1246 27.7107 15.9842 23.2713 16.2121L22.8646 7.99343C27.3797 8.36436 30.0048 8.33522 34.5928 8.16565L34.5902 8.163Z" fill="white"/>
<path d="M59.2012 8.07557C57.1523 15.9816 53.1351 19.9187 48.4741 21.6594L47.4079 20.4618C50.2989 18.0349 51.3103 14.9244 51.3677 10.7303C47.8589 10.7012 43.8418 11.3 39.8272 12.1849L37.5254 2.31033C41.4565 2.39512 47.4366 2.56733 52.0689 2.56733H52.7989C52.6581 3.13697 52.6581 3.59532 52.6581 3.85232C52.6581 6.53358 54.5663 8.47564 57.207 8.47564C57.6006 8.47564 58.3592 8.44649 59.2012 8.07557ZM57.2357 7.61986C55.158 7.61986 53.5027 6.22094 53.5027 3.76754C53.5027 1.54199 55.0459 -0.0291439 57.2357 1.58761e-07C59.4541 1.58761e-07 60.9974 1.54199 60.9974 3.76754C60.9974 6.22094 59.3394 7.61986 57.2357 7.61986ZM57.2357 2.25469C56.3937 2.25469 55.7185 2.93826 55.7185 3.82318C55.7185 4.64981 56.3911 5.36517 57.2357 5.36517C58.0803 5.36517 58.7789 4.65246 58.7789 3.82318C58.7789 2.93826 58.1064 2.25469 57.2357 2.25469Z" fill="white"/>
<path d="M10.3882 0.855778C9.68701 3.25354 9.18128 5.82087 8.84239 8.47564C11.3137 8.58956 14.2333 8.64785 18.5868 8.27693L17.3511 15.2397C14.0091 14.9536 11.285 14.8979 8.33927 15.0119C8.1985 18.1806 8.28192 21.0341 8.36795 23.0027L3.31329 22.9444C2.35919 12.9002 1.17829 5.47909 0 0.855778H10.3882Z" fill="white"/>
<path d="M34.5902 8.163L34.3321 16.326C30.3176 16.1246 27.7107 15.9842 23.2713 16.2121L22.8646 7.99343C27.3797 8.36436 30.0048 8.33522 34.5928 8.16565L34.5902 8.163Z" fill="white"/>
<path d="M59.2012 8.07557C57.1523 15.9816 53.1351 19.9187 48.4741 21.6594L47.4079 20.4618C50.2989 18.0349 51.3103 14.9244 51.3677 10.7303C47.8589 10.7012 43.8418 11.3 39.8272 12.1849L37.5254 2.31033C41.4565 2.39512 47.4366 2.56733 52.0689 2.56733H52.7989C52.6581 3.13697 52.6581 3.59532 52.6581 3.85232C52.6581 6.53358 54.5663 8.47564 57.207 8.47564C57.6006 8.47564 58.3592 8.44649 59.2012 8.07557ZM57.2357 7.61986C55.158 7.61986 53.5027 6.22094 53.5027 3.76754C53.5027 1.54199 55.0459 -0.0291439 57.2357 1.58761e-07C59.4541 1.58761e-07 60.9974 1.54199 60.9974 3.76754C60.9974 6.22094 59.3394 7.61986 57.2357 7.61986ZM57.2357 2.25469C56.3937 2.25469 55.7185 2.93826 55.7185 3.82318C55.7185 4.64981 56.3911 5.36517 57.2357 5.36517C58.0803 5.36517 58.7789 4.65246 58.7789 3.82318C58.7789 2.93826 58.1064 2.25469 57.2357 2.25469Z" fill="white"/>
</g>
<defs>
<clipPath id="clip0_134_1026">
<rect width="61" height="23" fill="white"/>
</clipPath>
</defs>
</svg>
