<svg width="36" height="32" viewBox="0 0 36 32" fill="none" xmlns="http://www.w3.org/2000/svg">
<path d="M34.9844 26.375L21.25 2.62502C20.9212 2.05382 20.4477 1.57936 19.8771 1.24946C19.3065 0.919553 18.6591 0.74585 18 0.74585C17.3409 0.74585 16.6935 0.919553 16.1229 1.24946C15.5524 1.57936 15.0788 2.05382 14.75 2.62502L1.01563 26.375C0.681984 26.9433 0.504671 27.5898 0.501694 28.2488C0.498717 28.9078 0.670182 29.5559 0.998678 30.1272C1.32717 30.6984 1.801 31.1726 2.37204 31.5016C2.94308 31.8305 3.591 32.0025 4.25 32H31.75C32.409 32.0025 33.0569 31.8305 33.628 31.5016C34.199 31.1726 34.6728 30.6984 35.0013 30.1272C35.3298 29.5559 35.5013 28.9078 35.4983 28.2488C35.4953 27.5898 35.318 26.9433 34.9844 26.375ZM16.75 13.25C16.75 12.9185 16.8817 12.6006 17.1161 12.3661C17.3505 12.1317 17.6685 12 18 12C18.3315 12 18.6495 12.1317 18.8839 12.3661C19.1183 12.6006 19.25 12.9185 19.25 13.25V19.5C19.25 19.8315 19.1183 20.1495 18.8839 20.3839C18.6495 20.6183 18.3315 20.75 18 20.75C17.6685 20.75 17.3505 20.6183 17.1161 20.3839C16.8817 20.1495 16.75 19.8315 16.75 19.5V13.25ZM18 27C17.6292 27 17.2667 26.8901 16.9583 26.684C16.65 26.478 16.4096 26.1852 16.2677 25.8426C16.1258 25.4999 16.0887 25.1229 16.161 24.7592C16.2334 24.3955 16.412 24.0614 16.6742 23.7992C16.9364 23.537 17.2705 23.3584 17.6342 23.286C17.9979 23.2137 18.3749 23.2508 18.7175 23.3927C19.0601 23.5347 19.353 23.775 19.559 24.0833C19.765 24.3917 19.875 24.7542 19.875 25.125C19.875 25.6223 19.6775 26.0992 19.3258 26.4508C18.9742 26.8025 18.4973 27 18 27Z" fill="#F5AC67"/>
</svg>
