<svg width="32" height="32" viewBox="0 0 32 32" fill="none" xmlns="http://www.w3.org/2000/svg">
<path d="M16.5 3C13.1868 3.00661 10.0112 4.32569 7.66846 6.66846C5.32569 9.01124 4.00661 12.1868 4 15.5V26.0375C4 26.558 4.20676 27.0572 4.5748 27.4252C4.94284 27.7932 5.44201 28 5.9625 28H16.5C19.8152 28 22.9946 26.683 25.3388 24.3388C27.683 21.9946 29 18.8152 29 15.5C29 12.1848 27.683 9.00537 25.3388 6.66117C22.9946 4.31696 19.8152 3 16.5 3ZM10.5 17.5C10.2033 17.5 9.91332 17.412 9.66665 17.2472C9.41997 17.0824 9.22771 16.8481 9.11418 16.574C9.00065 16.2999 8.97094 15.9983 9.02882 15.7074C9.0867 15.4164 9.22956 15.1491 9.43934 14.9393C9.64912 14.7296 9.91639 14.5867 10.2074 14.5288C10.4983 14.4709 10.7999 14.5006 11.074 14.6142C11.3481 14.7277 11.5824 14.92 11.7472 15.1666C11.912 15.4133 12 15.7033 12 16C12 16.3978 11.842 16.7794 11.5607 17.0607C11.2794 17.342 10.8978 17.5 10.5 17.5ZM16.5 17.5C16.2033 17.5 15.9133 17.412 15.6666 17.2472C15.42 17.0824 15.2277 16.8481 15.1142 16.574C15.0006 16.2999 14.9709 15.9983 15.0288 15.7074C15.0867 15.4164 15.2296 15.1491 15.4393 14.9393C15.6491 14.7296 15.9164 14.5867 16.2074 14.5288C16.4983 14.4709 16.7999 14.5006 17.074 14.6142C17.3481 14.7277 17.5824 14.92 17.7472 15.1666C17.912 15.4133 18 15.7033 18 16C18 16.3978 17.842 16.7794 17.5607 17.0607C17.2794 17.342 16.8978 17.5 16.5 17.5ZM22.5 17.5C22.2033 17.5 21.9133 17.412 21.6666 17.2472C21.42 17.0824 21.2277 16.8481 21.1142 16.574C21.0007 16.2999 20.9709 15.9983 21.0288 15.7074C21.0867 15.4164 21.2296 15.1491 21.4393 14.9393C21.6491 14.7296 21.9164 14.5867 22.2074 14.5288C22.4983 14.4709 22.7999 14.5006 23.074 14.6142C23.3481 14.7277 23.5824 14.92 23.7472 15.1666C23.912 15.4133 24 15.7033 24 16C24 16.3978 23.842 16.7794 23.5607 17.0607C23.2794 17.342 22.8978 17.5 22.5 17.5Z" fill="#686868"/>
</svg>
