<svg width="48" height="48" viewBox="0 0 48 48" fill="none" xmlns="http://www.w3.org/2000/svg">
<path fill-rule="evenodd" clip-rule="evenodd" d="M0 15C0 6.71573 6.71573 0 15 0H33C41.2843 0 48 6.71573 48 15V33C48 41.2843 41.2843 48 33 48H15C6.71573 48 0 41.2843 0 33V15ZM14.5 24.25C14.5 23.4216 15.1716 22.75 16 22.75H22.75V16C22.75 15.1716 23.4216 14.5 24.25 14.5C25.0784 14.5 25.75 15.1716 25.75 16V22.75H32.5C33.3284 22.75 34 23.4216 34 24.25C34 25.0784 33.3284 25.75 32.5 25.75H25.75V32.5C25.75 33.3284 25.0784 34 24.25 34C23.4216 34 22.75 33.3284 22.75 32.5V25.75H16C15.1716 25.75 14.5 25.0784 14.5 24.25Z" fill="#686868"/>
</svg>
