<svg width="32" height="32" viewBox="0 0 32 32" fill="none" xmlns="http://www.w3.org/2000/svg">
<path fill-rule="evenodd" clip-rule="evenodd" d="M0 15C0 6.71573 6.71573 0 15 0H17C25.2843 0 32 6.71573 32 15V17C32 25.2843 25.2843 32 17 32H15C6.71573 32 0 25.2843 0 17V15ZM8.5 15.5C8.5 14.6716 9.17157 14 10 14H14V10C14 9.17157 14.6716 8.5 15.5 8.5C16.3284 8.5 17 9.17157 17 10V14H21C21.8284 14 22.5 14.6716 22.5 15.5C22.5 16.3284 21.8284 17 21 17H17V21C17 21.8284 16.3284 22.5 15.5 22.5C14.6716 22.5 14 21.8284 14 21V17H10C9.17157 17 8.5 16.3284 8.5 15.5Z" fill="#686868"/>
</svg>
