<svg width="30" height="28" viewBox="0 0 30 28" fill="none" xmlns="http://www.w3.org/2000/svg">
<path d="M28.6874 11.0375C28.6564 10.8977 28.5957 10.7662 28.5094 10.6519C28.4232 10.5376 28.3133 10.4432 28.1874 10.375L25.2124 8.725C25.0541 8.4 24.8791 8.0875 24.6874 7.7875L24.7374 4.3875C24.7386 4.24489 24.7103 4.10358 24.6544 3.97238C24.5985 3.84119 24.5161 3.72293 24.4124 3.625C22.9311 2.28196 21.1793 1.2718 19.2749 0.6625C19.1382 0.619856 18.9939 0.606719 18.8517 0.623957C18.7095 0.641195 18.5725 0.688416 18.4499 0.7625L15.5374 2.5125C15.1749 2.5 14.8249 2.5 14.4624 2.5125L11.5499 0.7625C11.4273 0.688416 11.2904 0.641195 11.1482 0.623957C11.0059 0.606719 10.8617 0.619856 10.7249 0.6625C8.81801 1.27226 7.06547 2.28711 5.58743 3.6375C5.48286 3.73207 5.39975 3.84793 5.34369 3.97729C5.28763 4.10666 5.25992 4.24653 5.26243 4.3875L5.32493 7.7875C5.12493 8.0875 4.94993 8.4 4.77493 8.725L1.81243 10.375C1.68494 10.4411 1.57387 10.5349 1.48735 10.6496C1.40083 10.7642 1.34107 10.8968 1.31243 11.0375C0.887392 12.9896 0.887392 15.0104 1.31243 16.9625C1.34348 17.1023 1.40419 17.2338 1.49045 17.3481C1.57671 17.4624 1.68652 17.5568 1.81243 17.625L4.78743 19.275C4.94691 19.5984 5.12643 19.9115 5.32493 20.2125L5.26243 23.6125C5.26129 23.7551 5.28956 23.8964 5.34548 24.0276C5.4014 24.1588 5.48376 24.2771 5.58743 24.375C7.07077 25.7152 8.82193 26.725 10.7249 27.3375C10.8617 27.3801 11.0059 27.3933 11.1482 27.376C11.2904 27.3588 11.4273 27.3116 11.5499 27.2375L14.4624 25.4875H15.5374L18.4624 27.2375C18.6145 27.3375 18.793 27.3897 18.9749 27.3875C19.0766 27.3831 19.1773 27.3663 19.2749 27.3375C21.1819 26.7277 22.9344 25.7129 24.4124 24.3625C24.517 24.2679 24.6001 24.1521 24.6562 24.0227C24.7122 23.8933 24.7399 23.7535 24.7374 23.6125L24.6874 20.2125C24.8749 19.9125 25.0499 19.6 25.2249 19.275L28.1999 17.625C28.324 17.5561 28.4318 17.4613 28.5159 17.3469C28.6001 17.2326 28.6586 17.1015 28.6874 16.9625C29.1125 15.0104 29.1125 12.9896 28.6874 11.0375ZM20.4999 14C20.4999 15.0878 20.1774 16.1512 19.573 17.0556C18.9687 17.9601 18.1097 18.6651 17.1047 19.0813C16.0997 19.4976 14.9938 19.6065 13.9269 19.3943C12.86 19.1821 11.88 18.6583 11.1108 17.8891C10.3417 17.1199 9.81783 16.1399 9.60561 15.073C9.3934 14.0061 9.50231 12.9002 9.9186 11.8952C10.3349 10.8902 11.0398 10.0313 11.9443 9.42692C12.8488 8.82257 13.9121 8.5 14.9999 8.5C16.4586 8.5 17.8576 9.07946 18.889 10.1109C19.9205 11.1424 20.4999 12.5413 20.4999 14Z" fill="#686868"/>
</svg>
