<svg width="32" height="32" viewBox="0 0 32 32" fill="none" xmlns="http://www.w3.org/2000/svg">
<path d="M3 28H29" stroke="white" stroke-width="3" stroke-linecap="round" stroke-linejoin="round"/>
<path d="M7 28V5C7 4.73478 7.10536 4.48043 7.29289 4.29289C7.48043 4.10536 7.73478 4 8 4H24C24.2652 4 24.5196 4.10536 24.7071 4.29289C24.8946 4.48043 25 4.73478 25 5V28" stroke="white" stroke-width="3" stroke-linecap="round" stroke-linejoin="round"/>
<path d="M19.5 18C20.6046 18 21.5 17.1046 21.5 16C21.5 14.8954 20.6046 14 19.5 14C18.3954 14 17.5 14.8954 17.5 16C17.5 17.1046 18.3954 18 19.5 18Z" fill="white"/>
</svg>
