<svg width="32" height="32" viewBox="0 0 32 32" fill="none" xmlns="http://www.w3.org/2000/svg">
<path d="M25.5 17H30.5" stroke="#686868" stroke-width="3" stroke-linecap="round" stroke-linejoin="round"/>
<path d="M28 14.5V19.5" stroke="#686868" stroke-width="3" stroke-linecap="round" stroke-linejoin="round"/>
<path d="M13.5 20C17.6421 20 21 16.6421 21 12.5C21 8.35786 17.6421 5 13.5 5C9.35786 5 6 8.35786 6 12.5C6 16.6421 9.35786 20 13.5 20Z" stroke="#686868" stroke-width="3" stroke-linecap="round" stroke-linejoin="round"/>
<path d="M2.77502 25C4.08909 23.4338 5.73024 22.1744 7.5831 21.3104C9.43597 20.4463 11.4556 19.9985 13.5 19.9985C15.5445 19.9985 17.5641 20.4463 19.4169 21.3104C21.2698 22.1744 22.911 23.4338 24.225 25" stroke="#686868" stroke-width="3" stroke-linecap="round" stroke-linejoin="round"/>
</svg>
